<mxfile host="app.diagrams.net" agent="Mozilla/5.0 (Windows NT 10.0; Win64; x64; rv:131.0) Gecko/20100101 Firefox/131.0" version="24.8.3">
  <diagram name="Страница — 1" id="X5his6ymbL0saSJvPq9O">
    <mxGraphModel dx="1434" dy="754" grid="1" gridSize="10" guides="1" tooltips="1" connect="1" arrows="1" fold="1" page="1" pageScale="1" pageWidth="827" pageHeight="1169" math="0" shadow="0">
      <root>
        <mxCell id="0" />
        <mxCell id="1" parent="0" />
        <mxCell id="HzvKH4_7ZR6isa68ymQ4-1" value="Кинотеатр" style="swimlane;fontStyle=1;align=center;verticalAlign=top;childLayout=stackLayout;horizontal=1;startSize=30;horizontalStack=0;resizeParent=1;resizeParentMax=0;resizeLast=0;collapsible=0;marginBottom=0;" vertex="1" parent="1">
          <mxGeometry x="400" y="81" width="227" height="142" as="geometry" />
        </mxCell>
        <mxCell id="HzvKH4_7ZR6isa68ymQ4-2" value="+ название: String" style="text;strokeColor=none;fillColor=none;align=left;verticalAlign=top;spacingLeft=4;spacingRight=4;overflow=hidden;rotatable=0;points=[[0,0.5],[1,0.5]];portConstraint=eastwest;" vertex="1" parent="HzvKH4_7ZR6isa68ymQ4-1">
          <mxGeometry y="30" width="227" height="28" as="geometry" />
        </mxCell>
        <mxCell id="HzvKH4_7ZR6isa68ymQ4-3" value="+ адрес: String" style="text;strokeColor=none;fillColor=none;align=left;verticalAlign=top;spacingLeft=4;spacingRight=4;overflow=hidden;rotatable=0;points=[[0,0.5],[1,0.5]];portConstraint=eastwest;" vertex="1" parent="HzvKH4_7ZR6isa68ymQ4-1">
          <mxGeometry y="58" width="227" height="28" as="geometry" />
        </mxCell>
        <mxCell id="HzvKH4_7ZR6isa68ymQ4-4" value="+ номер телефона: String" style="text;strokeColor=none;fillColor=none;align=left;verticalAlign=top;spacingLeft=4;spacingRight=4;overflow=hidden;rotatable=0;points=[[0,0.5],[1,0.5]];portConstraint=eastwest;" vertex="1" parent="HzvKH4_7ZR6isa68ymQ4-1">
          <mxGeometry y="86" width="227" height="28" as="geometry" />
        </mxCell>
        <mxCell id="HzvKH4_7ZR6isa68ymQ4-5" value="+ открыт: Boolean" style="text;strokeColor=none;fillColor=none;align=left;verticalAlign=top;spacingLeft=4;spacingRight=4;overflow=hidden;rotatable=0;points=[[0,0.5],[1,0.5]];portConstraint=eastwest;" vertex="1" parent="HzvKH4_7ZR6isa68ymQ4-1">
          <mxGeometry y="114" width="227" height="28" as="geometry" />
        </mxCell>
        <mxCell id="HzvKH4_7ZR6isa68ymQ4-6" value="Кинозал" style="swimlane;fontStyle=1;align=center;verticalAlign=top;childLayout=stackLayout;horizontal=1;startSize=30;horizontalStack=0;resizeParent=1;resizeParentMax=0;resizeLast=0;collapsible=0;marginBottom=0;" vertex="1" parent="1">
          <mxGeometry x="860" y="60" width="190" height="170" as="geometry" />
        </mxCell>
        <mxCell id="HzvKH4_7ZR6isa68ymQ4-7" value="+ кинотеатр: String {unique}" style="text;strokeColor=none;fillColor=none;align=left;verticalAlign=top;spacingLeft=4;spacingRight=4;overflow=hidden;rotatable=0;points=[[0,0.5],[1,0.5]];portConstraint=eastwest;" vertex="1" parent="HzvKH4_7ZR6isa68ymQ4-6">
          <mxGeometry y="30" width="190" height="28" as="geometry" />
        </mxCell>
        <mxCell id="HzvKH4_7ZR6isa68ymQ4-8" value="+ номер: Integer {notNull, unique}." style="text;strokeColor=none;fillColor=none;align=left;verticalAlign=top;spacingLeft=4;spacingRight=4;overflow=hidden;rotatable=0;points=[[0,0.5],[1,0.5]];portConstraint=eastwest;" vertex="1" parent="HzvKH4_7ZR6isa68ymQ4-6">
          <mxGeometry y="58" width="190" height="28" as="geometry" />
        </mxCell>
        <mxCell id="HzvKH4_7ZR6isa68ymQ4-9" value="+ число рядов: Integer {&gt;0}" style="text;strokeColor=none;fillColor=none;align=left;verticalAlign=top;spacingLeft=4;spacingRight=4;overflow=hidden;rotatable=0;points=[[0,0.5],[1,0.5]];portConstraint=eastwest;" vertex="1" parent="HzvKH4_7ZR6isa68ymQ4-6">
          <mxGeometry y="86" width="190" height="28" as="geometry" />
        </mxCell>
        <mxCell id="HzvKH4_7ZR6isa68ymQ4-10" value="+ число мест в ряду: Integer {&gt;0}" style="text;strokeColor=none;fillColor=none;align=left;verticalAlign=top;spacingLeft=4;spacingRight=4;overflow=hidden;rotatable=0;points=[[0,0.5],[1,0.5]];portConstraint=eastwest;" vertex="1" parent="HzvKH4_7ZR6isa68ymQ4-6">
          <mxGeometry y="114" width="190" height="28" as="geometry" />
        </mxCell>
        <mxCell id="HzvKH4_7ZR6isa68ymQ4-11" value="+ работает: Boolean" style="text;strokeColor=none;fillColor=none;align=left;verticalAlign=top;spacingLeft=4;spacingRight=4;overflow=hidden;rotatable=0;points=[[0,0.5],[1,0.5]];portConstraint=eastwest;" vertex="1" parent="HzvKH4_7ZR6isa68ymQ4-6">
          <mxGeometry y="142" width="190" height="28" as="geometry" />
        </mxCell>
        <mxCell id="HzvKH4_7ZR6isa68ymQ4-12" value="Фильм" style="swimlane;fontStyle=1;align=center;verticalAlign=top;childLayout=stackLayout;horizontal=1;startSize=30;horizontalStack=0;resizeParent=1;resizeParentMax=0;resizeLast=0;collapsible=0;marginBottom=0;" vertex="1" parent="1">
          <mxGeometry x="431.25" y="290" width="220" height="198" as="geometry" />
        </mxCell>
        <mxCell id="HzvKH4_7ZR6isa68ymQ4-13" value="+ название: String" style="text;strokeColor=none;fillColor=none;align=left;verticalAlign=top;spacingLeft=4;spacingRight=4;overflow=hidden;rotatable=0;points=[[0,0.5],[1,0.5]];portConstraint=eastwest;" vertex="1" parent="HzvKH4_7ZR6isa68ymQ4-12">
          <mxGeometry y="30" width="220" height="28" as="geometry" />
        </mxCell>
        <mxCell id="HzvKH4_7ZR6isa68ymQ4-14" value="+ дата выхода: String" style="text;strokeColor=none;fillColor=none;align=left;verticalAlign=top;spacingLeft=4;spacingRight=4;overflow=hidden;rotatable=0;points=[[0,0.5],[1,0.5]];portConstraint=eastwest;" vertex="1" parent="HzvKH4_7ZR6isa68ymQ4-12">
          <mxGeometry y="58" width="220" height="28" as="geometry" />
        </mxCell>
        <mxCell id="HzvKH4_7ZR6isa68ymQ4-15" value="+ жанр: String" style="text;strokeColor=none;fillColor=none;align=left;verticalAlign=top;spacingLeft=4;spacingRight=4;overflow=hidden;rotatable=0;points=[[0,0.5],[1,0.5]];portConstraint=eastwest;" vertex="1" parent="HzvKH4_7ZR6isa68ymQ4-12">
          <mxGeometry y="86" width="220" height="28" as="geometry" />
        </mxCell>
        <mxCell id="HzvKH4_7ZR6isa68ymQ4-16" value="+ производство: String" style="text;strokeColor=none;fillColor=none;align=left;verticalAlign=top;spacingLeft=4;spacingRight=4;overflow=hidden;rotatable=0;points=[[0,0.5],[1,0.5]];portConstraint=eastwest;" vertex="1" parent="HzvKH4_7ZR6isa68ymQ4-12">
          <mxGeometry y="114" width="220" height="28" as="geometry" />
        </mxCell>
        <mxCell id="HzvKH4_7ZR6isa68ymQ4-17" value="+ длительность: Real {≥0}" style="text;strokeColor=none;fillColor=none;align=left;verticalAlign=top;spacingLeft=4;spacingRight=4;overflow=hidden;rotatable=0;points=[[0,0.5],[1,0.5]];portConstraint=eastwest;" vertex="1" parent="HzvKH4_7ZR6isa68ymQ4-12">
          <mxGeometry y="142" width="220" height="28" as="geometry" />
        </mxCell>
        <mxCell id="HzvKH4_7ZR6isa68ymQ4-18" value="+ возрастное ограничение: Integer" style="text;strokeColor=none;fillColor=none;align=left;verticalAlign=top;spacingLeft=4;spacingRight=4;overflow=hidden;rotatable=0;points=[[0,0.5],[1,0.5]];portConstraint=eastwest;" vertex="1" parent="HzvKH4_7ZR6isa68ymQ4-12">
          <mxGeometry y="170" width="220" height="28" as="geometry" />
        </mxCell>
        <mxCell id="HzvKH4_7ZR6isa68ymQ4-19" style="edgeStyle=orthogonalEdgeStyle;rounded=0;orthogonalLoop=1;jettySize=auto;html=1;exitX=1;exitY=0.5;exitDx=0;exitDy=0;endArrow=none;endFill=0;" edge="1" parent="1" source="HzvKH4_7ZR6isa68ymQ4-49" target="HzvKH4_7ZR6isa68ymQ4-24">
          <mxGeometry relative="1" as="geometry" />
        </mxCell>
        <mxCell id="HzvKH4_7ZR6isa68ymQ4-20" value="Сеанс" style="swimlane;fontStyle=1;align=center;verticalAlign=top;childLayout=stackLayout;horizontal=1;startSize=30;horizontalStack=0;resizeParent=1;resizeParentMax=0;resizeLast=0;collapsible=0;marginBottom=0;" vertex="1" parent="1">
          <mxGeometry x="710" y="290" width="140" height="114" as="geometry" />
        </mxCell>
        <mxCell id="HzvKH4_7ZR6isa68ymQ4-21" value="+ дата: String" style="text;strokeColor=none;fillColor=none;align=left;verticalAlign=top;spacingLeft=4;spacingRight=4;overflow=hidden;rotatable=0;points=[[0,0.5],[1,0.5]];portConstraint=eastwest;" vertex="1" parent="HzvKH4_7ZR6isa68ymQ4-20">
          <mxGeometry y="30" width="140" height="28" as="geometry" />
        </mxCell>
        <mxCell id="HzvKH4_7ZR6isa68ymQ4-22" value="+ время: String" style="text;strokeColor=none;fillColor=none;align=left;verticalAlign=top;spacingLeft=4;spacingRight=4;overflow=hidden;rotatable=0;points=[[0,0.5],[1,0.5]];portConstraint=eastwest;" vertex="1" parent="HzvKH4_7ZR6isa68ymQ4-20">
          <mxGeometry y="58" width="140" height="28" as="geometry" />
        </mxCell>
        <mxCell id="HzvKH4_7ZR6isa68ymQ4-23" value="+ цена: Real {≥0}&#xa;" style="text;strokeColor=none;fillColor=none;align=left;verticalAlign=top;spacingLeft=4;spacingRight=4;overflow=hidden;rotatable=0;points=[[0,0.5],[1,0.5]];portConstraint=eastwest;" vertex="1" parent="HzvKH4_7ZR6isa68ymQ4-20">
          <mxGeometry y="86" width="140" height="28" as="geometry" />
        </mxCell>
        <mxCell id="HzvKH4_7ZR6isa68ymQ4-24" value="Билет" style="swimlane;fontStyle=1;align=center;verticalAlign=top;childLayout=stackLayout;horizontal=1;startSize=30;horizontalStack=0;resizeParent=1;resizeParentMax=0;resizeLast=0;collapsible=0;marginBottom=0;" vertex="1" parent="1">
          <mxGeometry x="710" y="560" width="140" height="150" as="geometry" />
        </mxCell>
        <mxCell id="HzvKH4_7ZR6isa68ymQ4-25" value="+ ряд: Integer {≥0}" style="text;strokeColor=none;fillColor=none;align=left;verticalAlign=top;spacingLeft=4;spacingRight=4;overflow=hidden;rotatable=0;points=[[0,0.5],[1,0.5]];portConstraint=eastwest;" vertex="1" parent="HzvKH4_7ZR6isa68ymQ4-24">
          <mxGeometry y="30" width="140" height="28" as="geometry" />
        </mxCell>
        <mxCell id="HzvKH4_7ZR6isa68ymQ4-26" value="+ место: Integer {≥0}" style="text;strokeColor=none;fillColor=none;align=left;verticalAlign=top;spacingLeft=4;spacingRight=4;overflow=hidden;rotatable=0;points=[[0,0.5],[1,0.5]];portConstraint=eastwest;" vertex="1" parent="HzvKH4_7ZR6isa68ymQ4-24">
          <mxGeometry y="58" width="140" height="28" as="geometry" />
        </mxCell>
        <mxCell id="HzvKH4_7ZR6isa68ymQ4-27" value="+ сеанс: String" style="text;strokeColor=none;fillColor=none;align=left;verticalAlign=top;spacingLeft=4;spacingRight=4;overflow=hidden;rotatable=0;points=[[0,0.5],[1,0.5]];portConstraint=eastwest;" vertex="1" parent="HzvKH4_7ZR6isa68ymQ4-24">
          <mxGeometry y="86" width="140" height="34" as="geometry" />
        </mxCell>
        <mxCell id="HzvKH4_7ZR6isa68ymQ4-28" value="&lt;span style=&quot;color: rgb(0, 0, 0); font-family: Helvetica; font-size: 12px; font-style: normal; font-variant-ligatures: normal; font-variant-caps: normal; font-weight: 400; letter-spacing: normal; orphans: 2; text-align: left; text-indent: 0px; text-transform: none; widows: 2; word-spacing: 0px; -webkit-text-stroke-width: 0px; white-space: nowrap; background-color: rgb(251, 251, 251); text-decoration-thickness: initial; text-decoration-style: initial; text-decoration-color: initial; display: inline !important; float: none;&quot;&gt;+ цена: Integer&amp;nbsp;{≥0}&lt;/span&gt;" style="text;whiteSpace=wrap;html=1;" vertex="1" parent="HzvKH4_7ZR6isa68ymQ4-24">
          <mxGeometry y="120" width="140" height="30" as="geometry" />
        </mxCell>
        <mxCell id="HzvKH4_7ZR6isa68ymQ4-29" value="Зритель" style="swimlane;fontStyle=1;align=center;verticalAlign=top;childLayout=stackLayout;horizontal=1;startSize=30;horizontalStack=0;resizeParent=1;resizeParentMax=0;resizeLast=0;collapsible=0;marginBottom=0;" vertex="1" parent="1">
          <mxGeometry x="920" y="606" width="160" height="58" as="geometry" />
        </mxCell>
        <mxCell id="HzvKH4_7ZR6isa68ymQ4-30" value="+ Ф. И. О.: String" style="text;strokeColor=none;fillColor=none;align=left;verticalAlign=top;spacingLeft=4;spacingRight=4;overflow=hidden;rotatable=0;points=[[0,0.5],[1,0.5]];portConstraint=eastwest;" vertex="1" parent="HzvKH4_7ZR6isa68ymQ4-29">
          <mxGeometry y="30" width="160" height="28" as="geometry" />
        </mxCell>
        <mxCell id="HzvKH4_7ZR6isa68ymQ4-31" style="edgeStyle=orthogonalEdgeStyle;rounded=0;orthogonalLoop=1;jettySize=auto;html=1;exitX=1;exitY=0.5;exitDx=0;exitDy=0;entryX=1;entryY=0.5;entryDx=0;entryDy=0;endArrow=none;endFill=0;" edge="1" parent="1" source="HzvKH4_7ZR6isa68ymQ4-22" target="HzvKH4_7ZR6isa68ymQ4-45">
          <mxGeometry relative="1" as="geometry" />
        </mxCell>
        <mxCell id="HzvKH4_7ZR6isa68ymQ4-32" style="edgeStyle=orthogonalEdgeStyle;rounded=0;orthogonalLoop=1;jettySize=auto;html=1;exitX=1;exitY=0.5;exitDx=0;exitDy=0;entryX=0;entryY=0.5;entryDx=0;entryDy=0;" edge="1" parent="1" source="HzvKH4_7ZR6isa68ymQ4-14" target="HzvKH4_7ZR6isa68ymQ4-22">
          <mxGeometry relative="1" as="geometry">
            <mxPoint x="650" y="410" as="sourcePoint" />
            <mxPoint x="670" y="370" as="targetPoint" />
          </mxGeometry>
        </mxCell>
        <mxCell id="HzvKH4_7ZR6isa68ymQ4-34" value="Сотрудник" style="swimlane;fontStyle=1;align=center;verticalAlign=top;childLayout=stackLayout;horizontal=1;startSize=30;horizontalStack=0;resizeParent=1;resizeParentMax=0;resizeLast=0;collapsible=0;marginBottom=0;" vertex="1" parent="1">
          <mxGeometry x="442.5" y="790" width="197.5" height="58" as="geometry" />
        </mxCell>
        <mxCell id="HzvKH4_7ZR6isa68ymQ4-35" value="+ Ф. И. О.: String" style="text;strokeColor=none;fillColor=none;align=left;verticalAlign=top;spacingLeft=4;spacingRight=4;overflow=hidden;rotatable=0;points=[[0,0.5],[1,0.5]];portConstraint=eastwest;" vertex="1" parent="HzvKH4_7ZR6isa68ymQ4-34">
          <mxGeometry y="30" width="197.5" height="28" as="geometry" />
        </mxCell>
        <mxCell id="HzvKH4_7ZR6isa68ymQ4-36" value="Договор" style="swimlane;fontStyle=1;align=center;verticalAlign=top;childLayout=stackLayout;horizontal=1;startSize=30;horizontalStack=0;resizeParent=1;resizeParentMax=0;resizeLast=0;collapsible=0;marginBottom=0;" vertex="1" parent="1">
          <mxGeometry x="442.5" y="560" width="197.5" height="114" as="geometry" />
        </mxCell>
        <mxCell id="HzvKH4_7ZR6isa68ymQ4-37" value="+ дата заключения: String" style="text;strokeColor=none;fillColor=none;align=left;verticalAlign=top;spacingLeft=4;spacingRight=4;overflow=hidden;rotatable=0;points=[[0,0.5],[1,0.5]];portConstraint=eastwest;" vertex="1" parent="HzvKH4_7ZR6isa68ymQ4-36">
          <mxGeometry y="30" width="197.5" height="28" as="geometry" />
        </mxCell>
        <mxCell id="HzvKH4_7ZR6isa68ymQ4-38" value="+ дата окончания: String" style="text;strokeColor=none;fillColor=none;align=left;verticalAlign=top;spacingLeft=4;spacingRight=4;overflow=hidden;rotatable=0;points=[[0,0.5],[1,0.5]];portConstraint=eastwest;" vertex="1" parent="HzvKH4_7ZR6isa68ymQ4-36">
          <mxGeometry y="58" width="197.5" height="28" as="geometry" />
        </mxCell>
        <mxCell id="HzvKH4_7ZR6isa68ymQ4-39" value="+ оплата в месяц: Real {≥0}" style="text;strokeColor=none;fillColor=none;align=left;verticalAlign=top;spacingLeft=4;spacingRight=4;overflow=hidden;rotatable=0;points=[[0,0.5],[1,0.5]];portConstraint=eastwest;" vertex="1" parent="HzvKH4_7ZR6isa68ymQ4-36">
          <mxGeometry y="86" width="197.5" height="28" as="geometry" />
        </mxCell>
        <mxCell id="HzvKH4_7ZR6isa68ymQ4-40" value="Поставщик" style="swimlane;fontStyle=1;align=center;verticalAlign=top;childLayout=stackLayout;horizontal=1;startSize=30;horizontalStack=0;resizeParent=1;resizeParentMax=0;resizeLast=0;collapsible=0;marginBottom=0;" vertex="1" parent="1">
          <mxGeometry x="110" y="290" width="227" height="114" as="geometry" />
        </mxCell>
        <mxCell id="HzvKH4_7ZR6isa68ymQ4-41" value="+ организация: String" style="text;strokeColor=none;fillColor=none;align=left;verticalAlign=top;spacingLeft=4;spacingRight=4;overflow=hidden;rotatable=0;points=[[0,0.5],[1,0.5]];portConstraint=eastwest;" vertex="1" parent="HzvKH4_7ZR6isa68ymQ4-40">
          <mxGeometry y="30" width="227" height="28" as="geometry" />
        </mxCell>
        <mxCell id="HzvKH4_7ZR6isa68ymQ4-42" value="# ИНН: Integer" style="text;strokeColor=none;fillColor=none;align=left;verticalAlign=top;spacingLeft=4;spacingRight=4;overflow=hidden;rotatable=0;points=[[0,0.5],[1,0.5]];portConstraint=eastwest;" vertex="1" parent="HzvKH4_7ZR6isa68ymQ4-40">
          <mxGeometry y="58" width="227" height="28" as="geometry" />
        </mxCell>
        <mxCell id="HzvKH4_7ZR6isa68ymQ4-43" value="# счёт: Integer" style="text;strokeColor=none;fillColor=none;align=left;verticalAlign=top;spacingLeft=4;spacingRight=4;overflow=hidden;rotatable=0;points=[[0,0.5],[1,0.5]];portConstraint=eastwest;" vertex="1" parent="HzvKH4_7ZR6isa68ymQ4-40">
          <mxGeometry y="86" width="227" height="28" as="geometry" />
        </mxCell>
        <mxCell id="HzvKH4_7ZR6isa68ymQ4-44" value="" style="rhombus;whiteSpace=wrap;html=1;gradientColor=none;fillStyle=auto;fillColor=#000000;" vertex="1" parent="1">
          <mxGeometry x="627" y="144.5" width="30" height="15" as="geometry" />
        </mxCell>
        <mxCell id="HzvKH4_7ZR6isa68ymQ4-45" value="" style="rhombus;whiteSpace=wrap;html=1;gradientColor=none;fillStyle=auto;fillColor=#000000;direction=south;" vertex="1" parent="1">
          <mxGeometry x="937.5" y="230" width="15" height="30" as="geometry" />
        </mxCell>
        <mxCell id="HzvKH4_7ZR6isa68ymQ4-46" value="" style="endArrow=classic;html=1;rounded=0;entryX=0.5;entryY=1;entryDx=0;entryDy=0;exitX=0.5;exitY=0;exitDx=0;exitDy=0;" edge="1" parent="1" source="HzvKH4_7ZR6isa68ymQ4-36" target="HzvKH4_7ZR6isa68ymQ4-12">
          <mxGeometry width="50" height="50" relative="1" as="geometry">
            <mxPoint x="570" y="530" as="sourcePoint" />
            <mxPoint x="550" y="520" as="targetPoint" />
          </mxGeometry>
        </mxCell>
        <mxCell id="HzvKH4_7ZR6isa68ymQ4-47" style="edgeStyle=orthogonalEdgeStyle;rounded=0;orthogonalLoop=1;jettySize=auto;html=1;exitX=1;exitY=0.5;exitDx=0;exitDy=0;entryX=0;entryY=0.5;entryDx=0;entryDy=0;endArrow=none;endFill=0;" edge="1" parent="1" source="HzvKH4_7ZR6isa68ymQ4-48" target="HzvKH4_7ZR6isa68ymQ4-14">
          <mxGeometry relative="1" as="geometry">
            <mxPoint x="535" y="457.5" as="targetPoint" />
          </mxGeometry>
        </mxCell>
        <mxCell id="HzvKH4_7ZR6isa68ymQ4-48" value="" style="rhombus;whiteSpace=wrap;html=1;gradientColor=none;fillStyle=auto;fillColor=#FFFFFF;" vertex="1" parent="1">
          <mxGeometry x="337" y="354.5" width="30" height="15" as="geometry" />
        </mxCell>
        <mxCell id="HzvKH4_7ZR6isa68ymQ4-49" value="" style="rhombus;whiteSpace=wrap;html=1;gradientColor=none;fillStyle=auto;fillColor=#000000;direction=south;" vertex="1" parent="1">
          <mxGeometry x="772.5" y="404" width="15" height="30" as="geometry" />
        </mxCell>
        <mxCell id="HzvKH4_7ZR6isa68ymQ4-50" style="edgeStyle=orthogonalEdgeStyle;rounded=0;orthogonalLoop=1;jettySize=auto;html=1;exitX=1;exitY=0.5;exitDx=0;exitDy=0;entryX=-0.009;entryY=0.75;entryDx=0;entryDy=0;endArrow=none;endFill=0;entryPerimeter=0;" edge="1" parent="1" source="HzvKH4_7ZR6isa68ymQ4-51" target="HzvKH4_7ZR6isa68ymQ4-38">
          <mxGeometry relative="1" as="geometry">
            <mxPoint x="373" y="507.5" as="targetPoint" />
          </mxGeometry>
        </mxCell>
        <mxCell id="HzvKH4_7ZR6isa68ymQ4-51" value="" style="rhombus;whiteSpace=wrap;html=1;gradientColor=none;fillStyle=auto;fillColor=#000000;direction=south;" vertex="1" parent="1">
          <mxGeometry x="216" y="410" width="15" height="30" as="geometry" />
        </mxCell>
        <mxCell id="HzvKH4_7ZR6isa68ymQ4-52" style="edgeStyle=orthogonalEdgeStyle;rounded=0;orthogonalLoop=1;jettySize=auto;html=1;exitX=1;exitY=0.5;exitDx=0;exitDy=0;endArrow=none;endFill=0;" edge="1" parent="1" source="HzvKH4_7ZR6isa68ymQ4-44" target="HzvKH4_7ZR6isa68ymQ4-6">
          <mxGeometry relative="1" as="geometry">
            <mxPoint x="660" y="173" as="sourcePoint" />
            <mxPoint x="755" y="90" as="targetPoint" />
            <Array as="points">
              <mxPoint x="810" y="152" />
              <mxPoint x="810" y="152" />
            </Array>
          </mxGeometry>
        </mxCell>
        <mxCell id="HzvKH4_7ZR6isa68ymQ4-53" value="" style="endArrow=classic;html=1;rounded=0;entryX=1;entryY=0.5;entryDx=0;entryDy=0;exitX=0;exitY=0.5;exitDx=0;exitDy=0;" edge="1" parent="1" source="HzvKH4_7ZR6isa68ymQ4-29" target="HzvKH4_7ZR6isa68ymQ4-24">
          <mxGeometry width="50" height="50" relative="1" as="geometry">
            <mxPoint x="900" y="610" as="sourcePoint" />
            <mxPoint x="680" y="500" as="targetPoint" />
          </mxGeometry>
        </mxCell>
        <mxCell id="HzvKH4_7ZR6isa68ymQ4-54" style="edgeStyle=none;curved=1;rounded=0;orthogonalLoop=1;jettySize=auto;html=1;exitX=0.5;exitY=0;exitDx=0;exitDy=0;entryX=0.494;entryY=1.048;entryDx=0;entryDy=0;entryPerimeter=0;fontSize=12;startSize=8;endSize=8;" edge="1" parent="1" source="HzvKH4_7ZR6isa68ymQ4-34" target="HzvKH4_7ZR6isa68ymQ4-39">
          <mxGeometry relative="1" as="geometry" />
        </mxCell>
        <mxCell id="HzvKH4_7ZR6isa68ymQ4-56" value="Касса" style="swimlane;fontStyle=1;align=center;verticalAlign=top;childLayout=stackLayout;horizontal=1;startSize=30;horizontalStack=0;resizeParent=1;resizeParentMax=0;resizeLast=0;collapsible=0;marginBottom=0;" vertex="1" parent="1">
          <mxGeometry x="90" y="88" width="197.5" height="114" as="geometry" />
        </mxCell>
        <mxCell id="HzvKH4_7ZR6isa68ymQ4-57" value="+ номер: Integer {unique, &gt;0}" style="text;strokeColor=none;fillColor=none;align=left;verticalAlign=top;spacingLeft=4;spacingRight=4;overflow=hidden;rotatable=0;points=[[0,0.5],[1,0.5]];portConstraint=eastwest;" vertex="1" parent="HzvKH4_7ZR6isa68ymQ4-56">
          <mxGeometry y="30" width="197.5" height="28" as="geometry" />
        </mxCell>
        <mxCell id="HzvKH4_7ZR6isa68ymQ4-58" value="+ График работы: String" style="text;strokeColor=none;fillColor=none;align=left;verticalAlign=top;spacingLeft=4;spacingRight=4;overflow=hidden;rotatable=0;points=[[0,0.5],[1,0.5]];portConstraint=eastwest;" vertex="1" parent="HzvKH4_7ZR6isa68ymQ4-56">
          <mxGeometry y="58" width="197.5" height="28" as="geometry" />
        </mxCell>
        <mxCell id="HzvKH4_7ZR6isa68ymQ4-59" value="+ Сотрудник: String" style="text;strokeColor=none;fillColor=none;align=left;verticalAlign=top;spacingLeft=4;spacingRight=4;overflow=hidden;rotatable=0;points=[[0,0.5],[1,0.5]];portConstraint=eastwest;" vertex="1" parent="HzvKH4_7ZR6isa68ymQ4-56">
          <mxGeometry y="86" width="197.5" height="28" as="geometry" />
        </mxCell>
        <mxCell id="HzvKH4_7ZR6isa68ymQ4-60" value="" style="rhombus;whiteSpace=wrap;html=1;gradientColor=none;fillStyle=auto;fillColor=#000000;" vertex="1" parent="1">
          <mxGeometry x="370" y="144.5" width="30" height="15" as="geometry" />
        </mxCell>
        <mxCell id="HzvKH4_7ZR6isa68ymQ4-61" value="" style="endArrow=none;html=1;rounded=0;fontSize=12;startSize=8;endSize=8;curved=1;exitX=1.003;exitY=0.202;exitDx=0;exitDy=0;exitPerimeter=0;entryX=0;entryY=0.5;entryDx=0;entryDy=0;" edge="1" parent="1">
          <mxGeometry width="50" height="50" relative="1" as="geometry">
            <mxPoint x="287.50250000000005" y="151.826" as="sourcePoint" />
            <mxPoint x="369.40999999999997" y="152.17" as="targetPoint" />
          </mxGeometry>
        </mxCell>
        <mxCell id="HzvKH4_7ZR6isa68ymQ4-62" value="" style="endArrow=none;html=1;rounded=0;fontSize=12;startSize=8;endSize=8;curved=1;entryX=0;entryY=0.5;entryDx=0;entryDy=0;" edge="1" parent="1" target="HzvKH4_7ZR6isa68ymQ4-39">
          <mxGeometry width="50" height="50" relative="1" as="geometry">
            <mxPoint x="40" y="660" as="sourcePoint" />
            <mxPoint x="350" y="650" as="targetPoint" />
            <Array as="points" />
          </mxGeometry>
        </mxCell>
        <mxCell id="HzvKH4_7ZR6isa68ymQ4-63" value="" style="endArrow=none;html=1;rounded=0;fontSize=12;startSize=8;endSize=8;curved=1;" edge="1" parent="1">
          <mxGeometry width="50" height="50" relative="1" as="geometry">
            <mxPoint x="40" y="660" as="sourcePoint" />
            <mxPoint x="40" y="40" as="targetPoint" />
          </mxGeometry>
        </mxCell>
        <mxCell id="HzvKH4_7ZR6isa68ymQ4-64" value="" style="endArrow=none;html=1;rounded=0;fontSize=12;startSize=8;endSize=8;curved=1;" edge="1" parent="1">
          <mxGeometry width="50" height="50" relative="1" as="geometry">
            <mxPoint x="40" y="40" as="sourcePoint" />
            <mxPoint x="520" y="40" as="targetPoint" />
          </mxGeometry>
        </mxCell>
        <mxCell id="HzvKH4_7ZR6isa68ymQ4-65" value="" style="endArrow=classic;html=1;rounded=0;fontSize=12;startSize=8;endSize=8;curved=1;" edge="1" parent="1">
          <mxGeometry width="50" height="50" relative="1" as="geometry">
            <mxPoint x="520" y="40" as="sourcePoint" />
            <mxPoint x="520" y="80" as="targetPoint" />
          </mxGeometry>
        </mxCell>
      </root>
    </mxGraphModel>
  </diagram>
</mxfile>
